<svg width="54" height="72" viewBox="0 0 54 72" fill="none" xmlns="http://www.w3.org/2000/svg">
<path d="M14.953 7.31442V18.2227L20.2473 25.3212L23.1449 12.0407C23.1538 11.9778 23.1806 11.9329 23.2254 11.879C23.2611 11.8341 23.3148 11.7981 23.3774 11.7802C23.44 11.7622 23.4937 11.7622 23.5563 11.7802C23.6189 11.7892 23.6636 11.8161 23.7172 11.861C23.7619 11.906 23.7977 11.9509 23.8156 12.0138C23.8335 12.0767 23.8335 12.1306 23.8156 12.1935L20.7928 26.049L25.3717 32.177L29.0294 17.7375C29.0294 17.7375 29.0652 17.6566 29.092 17.6207C29.1189 17.5847 29.1546 17.5578 29.1904 17.5398C29.2262 17.5218 29.2709 17.5039 29.3156 17.4949C29.3603 17.4949 29.4051 17.4949 29.4498 17.4949C29.4945 17.5039 29.5303 17.5218 29.566 17.5488C29.6018 17.5758 29.6286 17.6027 29.6555 17.6476C29.6823 17.6926 29.6912 17.7285 29.7002 17.7734C29.7002 17.8184 29.7002 17.8633 29.7002 17.9082L25.9083 32.8779L29.4677 37.6401L34.4669 21.6911C34.4669 21.6911 34.5026 21.6102 34.5295 21.5743C34.5563 21.5383 34.5921 21.5114 34.6368 21.4934C34.6726 21.4754 34.7173 21.4574 34.762 21.4574C34.8067 21.4574 34.8514 21.4574 34.8961 21.4664C34.9408 21.4844 34.9766 21.5024 35.0124 21.5293C35.0482 21.5563 35.075 21.5922 35.1018 21.6282C35.1197 21.6641 35.1376 21.709 35.1376 21.754C35.1376 21.7989 35.1376 21.8438 35.1287 21.8887L29.9774 38.3051L33.814 43.4357L39.4214 29.0231C39.4929 28.8434 39.6896 28.7536 39.8685 28.8345C39.9043 28.8524 39.9401 28.8704 39.9758 28.8974C40.0116 28.9243 40.0295 28.9603 40.0474 28.9962C40.0653 29.0321 40.0742 29.0771 40.0831 29.113C40.0831 29.1579 40.0831 29.1939 40.0742 29.2388V29.2658L34.3059 44.0737L37.8474 48.809L43.2669 35.7352C43.2669 35.7352 43.3116 35.6544 43.3384 35.6274C43.3742 35.5915 43.41 35.5735 43.4458 35.5555C43.4815 35.5376 43.5352 35.5286 43.5799 35.5286C43.6246 35.5286 43.6693 35.5376 43.7141 35.5555C43.7588 35.5735 43.7945 35.6005 43.8214 35.6274C43.8482 35.6634 43.875 35.6993 43.8929 35.7352C43.9108 35.7802 43.9197 35.8161 43.9197 35.87C43.9197 35.9239 43.9108 35.9599 43.8929 36.0048L38.3213 49.4559L42.9449 55.6469C42.9807 55.6918 43.0075 55.7457 43.0075 55.8086C43.0075 55.8715 43.0075 55.9254 42.9807 55.9883C42.9539 56.0422 42.9181 56.0872 42.8734 56.1231C42.8287 56.1591 42.775 56.186 42.7124 56.186C42.6498 56.186 42.5962 56.186 42.5336 56.1591C42.4799 56.1321 42.4352 56.0962 42.3905 56.0512L37.7669 49.8603L23.288 51.3968C23.2254 51.3968 23.1717 51.3968 23.1091 51.3698C23.0554 51.3429 23.0107 51.3069 22.975 51.262C22.9392 51.2171 22.9213 51.1542 22.9124 51.1003C22.9124 51.0374 22.9124 50.9835 22.9392 50.9206C22.966 50.8667 23.0018 50.8217 23.0465 50.7858C23.0912 50.7498 23.1538 50.7319 23.2164 50.7229L37.2839 49.2313L34.0018 44.8375L33.966 44.9273L17.3229 47.1197C17.2603 47.1197 17.2066 47.1197 17.144 47.0928C17.0814 47.0658 17.0367 47.0299 17.0009 46.985C16.9652 46.94 16.9383 46.8861 16.9294 46.8232C16.9294 46.7603 16.9294 46.7064 16.9562 46.6435C16.9831 46.5896 17.0188 46.5357 17.0636 46.4998C17.1083 46.4638 17.1709 46.4369 17.2245 46.4279L33.4652 44.2893L33.501 44.1905L29.6555 39.0509L13.7367 41.7465C13.692 41.7465 13.6473 41.7465 13.6026 41.7465C13.5578 41.7375 13.5221 41.7195 13.4774 41.6926C13.4416 41.6656 13.4058 41.6297 13.3879 41.5937C13.3611 41.5578 13.3432 41.5129 13.3432 41.4679C13.3432 41.423 13.3432 41.3781 13.3432 41.3331C13.3522 41.2882 13.37 41.2433 13.3969 41.2074C13.4237 41.1714 13.4595 41.1445 13.4952 41.1175C13.531 41.0905 13.5757 41.0726 13.6204 41.0726L29.1904 38.4309L25.2733 33.1834L8.90743 35.6993C8.86271 35.6993 8.818 35.6993 8.77328 35.6993C8.72856 35.6903 8.69279 35.6723 8.65702 35.6454C8.62125 35.6184 8.58547 35.5825 8.56759 35.5466C8.54076 35.5106 8.53181 35.4657 8.52287 35.4208C8.52287 35.3758 8.52287 35.3309 8.52287 35.286C8.53181 35.241 8.5497 35.2051 8.57653 35.1602C8.60336 35.1242 8.63913 35.0973 8.6749 35.0703C8.71068 35.0434 8.75539 35.0344 8.80011 35.0254L24.8083 32.5634L20.3993 26.669L7.61962 28.4301C7.55701 28.4301 7.50336 28.4301 7.44075 28.4121C7.38709 28.3942 7.33344 28.3492 7.29766 28.3043C7.26189 28.2594 7.23506 28.1965 7.22612 28.1426C7.22612 28.0797 7.22612 28.0258 7.25295 27.9629C7.27978 27.9 7.31555 27.855 7.36027 27.8191C7.41392 27.7832 7.46758 27.7562 7.53019 27.7562L19.9343 26.049L14.6042 18.9146L5.51798 20.1276C5.45538 20.1276 5.40172 20.1276 5.33912 20.1096C5.28546 20.0827 5.24075 20.0467 5.19603 20.0018C5.16026 19.9569 5.13343 19.894 5.12449 19.8401C5.12449 19.7772 5.12449 19.7233 5.15132 19.6604C5.17815 19.6065 5.21392 19.5525 5.25863 19.5166C5.31229 19.4807 5.36595 19.4537 5.41961 19.4447L14.1213 18.2856L5.82205 7.15269C5.82205 7.15269 5.77733 7.07182 5.76839 7.03588C5.75945 6.99095 5.75945 6.94602 5.76839 6.90109C5.76839 6.85617 5.78628 6.81124 5.81311 6.7753C5.83994 6.73936 5.86677 6.70342 5.90254 6.67646C5.93831 6.6495 5.97408 6.63153 6.0188 6.61356C6.06351 6.60458 6.10823 6.59559 6.15295 6.61356C6.19766 6.61356 6.24238 6.63153 6.27815 6.65849C6.31392 6.68545 6.34969 6.7124 6.37652 6.74834L14.2733 17.3242V7.31442C14.2733 7.31442 14.3001 7.23355 14.318 7.18863C14.3359 7.15269 14.3627 7.11674 14.3896 7.08979C14.4253 7.06283 14.4611 7.03588 14.4969 7.01791C14.5326 6.99993 14.5774 6.99095 14.6221 6.99095C14.6668 6.99095 14.7115 6.99095 14.7473 7.01791C14.7831 7.03588 14.8278 7.05385 14.8546 7.08979C14.8904 7.11674 14.9083 7.15269 14.9351 7.18863C14.953 7.22457 14.9619 7.2695 14.9709 7.31442M0.017965 0.0811769C0.017965 0.0811769 -1.05521 36.0318 12.1806 49.1235C25.4164 62.2152 45.3328 61.146 45.3328 61.146C45.3328 61.146 50.3588 67.0224 49.9206 69.2957L49.4824 71.578L53.5604 72.0003C53.5604 72.0003 54.8661 65.1624 51.6734 62.0086C48.4807 58.8457 48.4539 55.2066 48.4539 55.2066C48.4539 55.2066 56.0377 40.1291 37.3018 18.8966C18.566 -2.33589 0.017965 0.0811769 0.017965 0.0811769Z" fill="white"/>
</svg>
