<svg width="19" height="12" viewBox="0 0 19 12" fill="none" xmlns="http://www.w3.org/2000/svg">
<path d="M11.4336 5.08398C11.4629 5.37695 11.5215 5.64062 11.5215 6.02148C11.5215 9.24414 9.35352 11.5 6.10156 11.5C2.99609 11.5 0.476562 9.00977 0.476562 5.875C0.476562 2.76953 2.99609 0.25 6.10156 0.25C7.625 0.25 8.88477 0.806641 9.88086 1.74414L8.35742 3.20898C7.94727 2.79883 7.21484 2.33008 6.10156 2.33008C4.19727 2.33008 2.61523 3.91211 2.61523 5.875C2.61523 7.86719 4.19727 9.44922 6.10156 9.44922C8.32812 9.44922 9.17773 7.83789 9.29492 7.01758H6.10156V5.08398H11.4336ZM16.8535 5.25977H18.4941V6.90039H16.8535V8.54102H15.2129V6.90039H13.5723V5.25977H15.2129V3.64844H16.8535V5.25977Z" fill="white"/>
</svg>
