<svg width="32" height="32" viewBox="0 0 32 32" fill="none" xmlns="http://www.w3.org/2000/svg">
<path d="M4 5.4C4 5 4.13333 4.66667 4.4 4.4C4.66666 4.13333 5 4 5.4 4L10.8 4C11.1111 4 11.3836 4.1 11.6173 4.3C11.8502 4.5 12 4.75555 12.0667 5.06667L13 9.66667C13.0444 9.97778 13.0169 10.2947 12.9173 10.6173C12.8169 10.9391 12.6667 11.2 12.4667 11.4L9.33333 14.5333C10.3556 16.2222 11.5667 17.7667 12.9667 19.1667C14.3667 20.5667 15.8667 21.7333 17.4667 22.6667L20.7333 19.4667C20.9333 19.2667 21.1613 19.1387 21.4173 19.0827C21.6724 19.0276 21.9556 19.0222 22.2667 19.0667L26.9333 19.9333C27.2444 19.9778 27.5 20.1222 27.7 20.3667C27.9 20.6111 28 20.8889 28 21.2L28 26.6C28 27 27.8667 27.3333 27.6 27.6C27.3333 27.8667 27 28 26.6 28C23.7333 28 20.9391 27.3609 18.2173 26.0827C15.4947 24.8053 13.0836 23.1164 10.984 21.016C8.88355 18.9164 7.19466 16.5058 5.91733 13.784C4.63911 11.0613 4 8.26667 4 5.4Z" fill="#0F4229"/>
</svg>
