<svg width="14" height="14" viewBox="0 0 14 14" fill="none" xmlns="http://www.w3.org/2000/svg">
<path d="M7 3.50586C5.125 3.50586 3.63086 5.0293 3.63086 6.875C3.63086 8.75 5.125 10.2441 7 10.2441C8.8457 10.2441 10.3691 8.75 10.3691 6.875C10.3691 5.0293 8.8457 3.50586 7 3.50586ZM7 9.07227C5.79883 9.07227 4.80273 8.10547 4.80273 6.875C4.80273 5.67383 5.76953 4.70703 7 4.70703C8.20117 4.70703 9.16797 5.67383 9.16797 6.875C9.16797 8.10547 8.20117 9.07227 7 9.07227ZM11.2773 3.38867C11.2773 2.94922 10.9258 2.59766 10.4863 2.59766C10.0469 2.59766 9.69531 2.94922 9.69531 3.38867C9.69531 3.82812 10.0469 4.17969 10.4863 4.17969C10.9258 4.17969 11.2773 3.82812 11.2773 3.38867ZM13.5039 4.17969C13.4453 3.125 13.2109 2.1875 12.4492 1.42578C11.6875 0.664062 10.75 0.429688 9.69531 0.371094C8.61133 0.3125 5.35938 0.3125 4.27539 0.371094C3.2207 0.429688 2.3125 0.664062 1.52148 1.42578C0.759766 2.1875 0.525391 3.125 0.466797 4.17969C0.408203 5.26367 0.408203 8.51562 0.466797 9.59961C0.525391 10.6543 0.759766 11.5625 1.52148 12.3535C2.3125 13.1152 3.2207 13.3496 4.27539 13.4082C5.35938 13.4668 8.61133 13.4668 9.69531 13.4082C10.75 13.3496 11.6875 13.1152 12.4492 12.3535C13.2109 11.5625 13.4453 10.6543 13.5039 9.59961C13.5625 8.51562 13.5625 5.26367 13.5039 4.17969ZM12.0977 10.7422C11.8926 11.3281 11.4238 11.7676 10.8672 12.002C9.98828 12.3535 7.9375 12.2656 7 12.2656C6.0332 12.2656 3.98242 12.3535 3.13281 12.002C2.54688 11.7676 2.10742 11.3281 1.87305 10.7422C1.52148 9.89258 1.60938 7.8418 1.60938 6.875C1.60938 5.9375 1.52148 3.88672 1.87305 3.00781C2.10742 2.45117 2.54688 2.01172 3.13281 1.77734C3.98242 1.42578 6.0332 1.51367 7 1.51367C7.9375 1.51367 9.98828 1.42578 10.8672 1.77734C11.4238 1.98242 11.8633 2.45117 12.0977 3.00781C12.4492 3.88672 12.3613 5.9375 12.3613 6.875C12.3613 7.8418 12.4492 9.89258 12.0977 10.7422Z" fill="white"/>
</svg>
