<svg width="12" height="12" viewBox="0 0 12 12" fill="none" xmlns="http://www.w3.org/2000/svg">
<path d="M11.0219 0.140625C11.4535 0.140625 11.8344 0.521484 11.8344 0.978516V10.7031C11.8344 11.1602 11.4535 11.5156 11.0219 11.5156H1.24648C0.814844 11.5156 0.459375 11.1602 0.459375 10.7031V0.978516C0.459375 0.521484 0.814844 0.140625 1.24648 0.140625H11.0219ZM3.88711 9.89062V4.48242H2.21133V9.89062H3.88711ZM3.04922 3.7207C3.58242 3.7207 4.01406 3.28906 4.01406 2.75586C4.01406 2.22266 3.58242 1.76562 3.04922 1.76562C2.49062 1.76562 2.05898 2.22266 2.05898 2.75586C2.05898 3.28906 2.49062 3.7207 3.04922 3.7207ZM10.2094 9.89062V6.91992C10.2094 5.47266 9.8793 4.33008 8.17812 4.33008C7.36562 4.33008 6.80703 4.78711 6.57852 5.21875H6.55312V4.48242H4.95352V9.89062H6.6293V7.22461C6.6293 6.51367 6.75625 5.82812 7.64492 5.82812C8.5082 5.82812 8.5082 6.64062 8.5082 7.25V9.89062H10.2094Z" fill="white"/>
</svg>
