<svg width="22" height="28" viewBox="0 0 22 28" fill="none" xmlns="http://www.w3.org/2000/svg">
<path d="M11.0002 13.9998C11.7335 13.9998 12.3615 13.7385 12.8842 13.2158C13.4059 12.6941 13.6668 12.0665 13.6668 11.3332C13.6668 10.5998 13.4059 9.97184 12.8842 9.44917C12.3615 8.92739 11.7335 8.6665 11.0002 8.6665C10.2668 8.6665 9.63927 8.92739 9.1175 9.44917C8.59483 9.97184 8.3335 10.5998 8.3335 11.3332C8.3335 12.0665 8.59483 12.6941 9.1175 13.2158C9.63927 13.7385 10.2668 13.9998 11.0002 13.9998ZM11.0002 27.3332C7.42239 24.2887 4.75038 21.4607 2.98416 18.8492C1.21705 16.2385 0.333496 13.8221 0.333496 11.5998C0.333496 8.2665 1.40594 5.61095 3.55083 3.63317C5.69483 1.65539 8.17794 0.666504 11.0002 0.666504C13.8224 0.666504 16.3055 1.65539 18.4495 3.63317C20.5944 5.61095 21.6668 8.2665 21.6668 11.5998C21.6668 13.8221 20.7837 16.2385 19.0175 18.8492C17.2504 21.4607 14.5779 24.2887 11.0002 27.3332Z" fill="#0F4229"/>
</svg>
