<svg width="24" height="24" viewBox="0 0 24 24" fill="none" xmlns="http://www.w3.org/2000/svg">
<path d="M-6.1196e-08 1.4C-4.37114e-08 0.999999 0.133331 0.666666 0.399998 0.399999C0.666664 0.133332 0.999998 -1.00536e-06 1.4 -9.87877e-07L6.8 -7.51836e-07C7.11111 -7.38237e-07 7.38356 0.0999991 7.61733 0.299999C7.85022 0.499999 8 0.755555 8.06667 1.06667L9 5.66667C9.04444 5.97778 9.01689 6.29467 8.91733 6.61733C8.81689 6.93911 8.66667 7.2 8.46667 7.4L5.33333 10.5333C6.35555 12.2222 7.56667 13.7667 8.96667 15.1667C10.3667 16.5667 11.8667 17.7333 13.4667 18.6667L16.7333 15.4667C16.9333 15.2667 17.1613 15.1387 17.4173 15.0827C17.6724 15.0276 17.9556 15.0222 18.2667 15.0667L22.9333 15.9333C23.2444 15.9778 23.5 16.1222 23.7 16.3667C23.9 16.6111 24 16.8889 24 17.2L24 22.6C24 23 23.8667 23.3333 23.6 23.6C23.3333 23.8667 23 24 22.6 24C19.7333 24 16.9391 23.3609 14.2173 22.0827C11.4947 20.8053 9.08355 19.1164 6.984 17.016C4.88355 14.9164 3.19467 12.5058 1.91733 9.784C0.63911 7.06133 -1.86502e-07 4.26667 -6.1196e-08 1.4Z" fill="#0F4229"/>
</svg>
