<svg width="15" height="13" viewBox="0 0 15 13" fill="none" xmlns="http://www.w3.org/2000/svg">
<path d="M13.4473 3.82812C14.0332 3.38867 14.5605 2.86133 14.9707 2.24609C14.4434 2.48047 13.8281 2.65625 13.2129 2.71484C13.8574 2.33398 14.3262 1.74805 14.5605 1.01562C13.9746 1.36719 13.3008 1.63086 12.627 1.77734C12.041 1.16211 11.25 0.810547 10.3711 0.810547C8.67188 0.810547 7.29492 2.1875 7.29492 3.88672C7.29492 4.12109 7.32422 4.35547 7.38281 4.58984C4.83398 4.44336 2.54883 3.21289 1.02539 1.36719C0.761719 1.80664 0.615234 2.33398 0.615234 2.91992C0.615234 3.97461 1.14258 4.91211 1.99219 5.46875C1.49414 5.43945 0.996094 5.32227 0.585938 5.08789V5.11719C0.585938 6.61133 1.64062 7.8418 3.04688 8.13477C2.8125 8.19336 2.51953 8.25195 2.25586 8.25195C2.05078 8.25195 1.875 8.22266 1.66992 8.19336C2.05078 9.42383 3.19336 10.3027 4.54102 10.332C3.48633 11.1523 2.16797 11.6504 0.732422 11.6504C0.46875 11.6504 0.234375 11.6211 0 11.5918C1.34766 12.4707 2.95898 12.9688 4.7168 12.9688C10.3711 12.9688 13.4473 8.31055 13.4473 4.23828C13.4473 4.0918 13.4473 3.97461 13.4473 3.82812Z" fill="white"/>
</svg>
